PathFileType	4	(X/Y/Z)	/Users/itak/Documents/Research/Walk-IL/dataset/trc/00479_00167.trc
DataRate	CameraRate	NumFrames	NumMarkers	Units	OrigDataRate	OrigDataStartFrame	OrigNumFrames
100.000000	100.000000	4	53	mm	100.000000	302	605
Frame#	Time	RPSI			LPSI			L3			STRN			T10			C7			CLAV			RBAK			LBAK			LSHO			LUPA			LAEL			LAOL			LWTS			LWPS			LFRA			LIFD			LHPS			LHTS			RSHO			RUPA			RAEL			RAOL			RWTS			RWPS			RFRA			RIFD			RHTS			RHPS			RBHD			LFHD			RFHD			LBHD			LHIP			RHIP			RASI			LASI			LKNE			LTHI			LANK			LTIP			LTOE			LMT1			LMT5			LHEE			RKNE			RTHI			RANK			RTIP			RTOE			RMT1			RMT5			RHEE			
		X1	Y1	Z1	X2	Y2	Z2	X3	Y3	Z3	X4	Y4	Z4	X5	Y5	Z5	X6	Y6	Z6	X7	Y7	Z7	X8	Y8	Z8	X9	Y9	Z9	X10	Y10	Z10	X11	Y11	Z11	X12	Y12	Z12	X13	Y13	Z13	X14	Y14	Z14	X15	Y15	Z15	X16	Y16	Z16	X17	Y17	Z17	X18	Y18	Z18	X19	Y19	Z19	X20	Y20	Z20	X21	Y21	Z21	X22	Y22	Z22	X23	Y23	Z23	X24	Y24	Z24	X25	Y25	Z25	X26	Y26	Z26	X27	Y27	Z27	X28	Y28	Z28	X29	Y29	Z29	X30	Y30	Z30	X31	Y31	Z31	X32	Y32	Z32	X33	Y33	Z33	X34	Y34	Z34	X35	Y35	Z35	X36	Y36	Z36	X37	Y37	Z37	X38	Y38	Z38	X39	Y39	Z39	X40	Y40	Z40	X41	Y41	Z41	X42	Y42	Z42	X43	Y43	Z43	X44	Y44	Z44	X45	Y45	Z45	X46	Y46	Z46	X47	Y47	Z47	X48	Y48	Z48	X49	Y49	Z49	X50	Y50	Z50	X51	Y51	Z51	X52	Y52	Z52	X53	Y53	Z53	

303	3.02	-453.2450866699219	895.8203125	-49.7851676940918	-413.7428894042969	868.1629028320312	-182.3070831298828	-437.3145141601562	987.2721557617188	-86.47011566162109	-161.7865753173828	1194.068969726562	-72.42796325683594	-448.1324157714844	1113.918823242188	-85.29273223876953	-385.726806640625	1383.37744140625	-67.19544219970703	-201.2248077392578	1304.709350585938	-89.71379089355469	-443.6024169921875	1268.274536132812	34.10224151611328	-428.45703125	1329.753295898438	-157.2106323242188	-335.9486389160156	1356.86083984375	-241.2156066894531	-372.0130615234375	1261.860717773438	-344.6436157226562	-377.8116455078125	1070.876098632812	-433.95556640625	-439.9203186035156	1043.224365234375	-355.6777648925781	-313.6674194335938	863.868896484375	-471.7198181152344	-378.1611022949219	864.50390625	-513.4122314453125	-370.0023498535156	989.1424560546875	-472.0704650878906	-326.8359375	712.7893676757812	-524.16455078125	-377.4918518066406	790.3807373046875	-536.4763793945312	-310.9876098632812	784.2451782226562	-507.8042907714844	-310.2453002929688	1367.437866210938	82.50546264648438	-311.2236633300781	1320.720092773438	167.5520782470703	-171.9588928222656	1087.66455078125	274.8271484375	-211.2867126464844	1035.904174804688	257.6912231445312	19.3768196105957	982.7394409179688	197.7944641113281	3.435582399368286	947.9444580078125	277.1895446777344	-129.2148742675781	1047.040893554688	284.8626708984375	133.1139984130859	878.0108642578125	206.1146392822266	101.3181228637695	929.151611328125	202.4846343994141	74.77840423583984	897.2822265625	269.6448974609375	-211.1229400634766	1590.51513671875	-66.40639495849609	-220.8658752441406	1532.948852539062	-264.3570556640625	-131.1011657714844	1559.847045898438	-173.8074340820312	-344.6267700195312	1562.919799804688	-180.1414642333984	-238.6677856445312	781.1585083007812	-245.5722808837891	-388.1759338378906	817.9624633789062	126.8786010742188	-265.2185363769531	851.47119140625	95.73886108398438	-177.5882263183594	835.9583740234375	-144.0382080078125	-39.46388244628906	423.4269104003906	-203.6600189208984	-91.63351440429688	564.80029296875	-220.7122192382812	95.66020965576172	37.72712326049805	-172.8274383544922	13.82551193237305	290.6029357910156	-215.8825531005859	293.4633178710938	149.1255035400391	-212.3277740478516	255.5440521240234	118.363395690918	-155.9994049072266	200.0740356445312	103.0908355712891	-250.900146484375	84.82334136962891	35.04218673706055	-95.71240997314453	-415.6872863769531	429.8640747070312	115.3121109008789	-359.326904296875	683.8424682617188	147.1514434814453	-633.6739501953125	52.37657928466797	97.93827056884766	-472.139404296875	291.7226867675781	119.4682464599609	-415.4928588867188	43.83327102661133	50.77760314941406	-480.96533203125	52.18804931640625	19.43982696533203	-501.0388793945312	46.36975479125977	127.0201187133789	-698.1052856445312	57.47802734375	48.90842056274414	
304	3.03	-440.6241149902344	893.3157958984375	-49.57498550415039	-402.0518798828125	864.3360595703125	-182.0434722900391	-425.4287414550781	983.8246459960938	-86.57113647460938	-149.6426544189453	1191.355346679688	-78.46645355224609	-436.0204162597656	1110.494140625	-86.32855987548828	-373.9931640625	1380.283203125	-70.63515472412109	-189.5382690429688	1301.858032226562	-95.92794799804688	-429.9127197265625	1265.377685546875	32.15670776367188	-417.89453125	1326.1787109375	-159.6487579345703	-326.9931945800781	1353.483032226562	-245.3219146728516	-365.4417114257812	1258.959228515625	-347.8651123046875	-374.0998840332031	1068.699340820312	-438.1708984375	-434.7084655761719	1041.087524414062	-358.7404479980469	-312.2742919921875	861.6959838867188	-478.5160217285156	-377.7550048828125	862.9752807617188	-518.7100830078125	-367.5572509765625	987.164306640625	-476.760498046875	-327.6835327148438	711.1932373046875	-532.3529663085938	-378.1271667480469	789.2479248046875	-542.5560302734375	-310.9591369628906	782.33984375	-515.4515380859375	-296.0895385742188	1364.937377929688	78.10247802734375	-295.3869934082031	1317.87548828125	163.2169799804688	-150.8071136474609	1085.680297851562	265.4170837402344	-189.4871826171875	1033.044311523438	248.9382629394531	40.48876571655273	986.958740234375	180.2823028564453	28.42137908935547	951.056884765625	259.8626708984375	-106.6823425292969	1046.100463867188	273.5200805664062	157.1074066162109	885.2012939453125	183.1899261474609	123.755256652832	935.3468627929688	181.2636871337891	100.7232666015625	902.317138671875	249.0354461669922	-200.7652130126953	1588.244384765625	-73.03616333007812	-213.6920776367188	1530.561279296875	-270.7809448242188	-122.5042419433594	1558.1435546875	-181.8558044433594	-336.0975036621094	1559.646606445312	-184.2483520507812	-227.2857360839844	778.041748046875	-246.0784606933594	-375.4562683105469	816.3868408203125	127.2583389282227	-252.1795806884766	849.30859375	95.06220245361328	-165.3048095703125	833.2948608398438	-145.2131195068359	-25.17309379577637	421.6418151855469	-204.6616516113281	-78.31846618652344	563.3731079101562	-222.0321502685547	101.6791305541992	34.07442474365234	-170.6980285644531	26.0341682434082	286.7256164550781	-215.711181640625	301.5407104492188	138.9488220214844	-215.6639099121094	264.618408203125	109.5114822387695	-158.2699127197266	206.2134094238281	94.99281311035156	-251.7079010009766	92.67737579345703	32.64425277709961	-93.22505950927734	-406.5702514648438	428.8541564941406	117.0903854370117	-347.7245483398438	682.3310546875	147.7479095458984	-633.0313720703125	54.67337799072266	98.83529663085938	-466.3473205566406	292.0370483398438	121.3398666381836	-415.4997253417969	43.77375793457031	50.81307983398438	-480.6137084960938	52.80119705200195	20.24210548400879	-500.9153747558594	46.0929069519043	127.5726165771484	-697.24853515625	62.81997299194336	49.84838485717773	
305	3.04	-427.6795959472656	891.1497802734375	-49.36268615722656	-389.9955749511719	860.936279296875	-181.8364410400391	-413.1641540527344	980.7442016601562	-86.77979278564453	-137.2677459716797	1189.002197265625	-84.93319702148438	-423.6764221191406	1107.41943359375	-87.50424957275391	-362.0237121582031	1377.538452148438	-74.42200469970703	-177.6635131835938	1299.331909179688	-102.6074371337891	-415.8790893554688	1262.8974609375	29.97082138061523	-407.1313781738281	1322.86767578125	-162.3440246582031	-317.9317321777344	1350.299926757812	-249.7577819824219	-358.861572265625	1256.147338867188	-351.2322692871094	-370.5618286132812	1066.600830078125	-442.3147888183594	-429.5244750976562	1039.063110351562	-361.6473999023438	-311.2463989257812	859.5211181640625	-485.0256042480469	-377.5876159667969	861.5548706054688	-523.687744140625	-365.4278869628906	985.263427734375	-481.3200073242188	-328.8402709960938	709.7623291015625	-540.2459106445312	-379.075927734375	788.2310180664062	-548.2755126953125	-311.2466125488281	780.5709228515625	-522.8841552734375	-281.5443725585938	1362.885620117188	73.26373291015625	-279.0674743652344	1315.53271484375	158.4487915039062	-129.8874969482422	1083.8583984375	255.2866516113281	-167.9586944580078	1030.430541992188	239.3831939697266	60.76052093505859	991.2012939453125	161.9690704345703	52.52909469604492	954.1885986328125	241.5314331054688	-84.53815460205078	1045.302612304688	261.3694763183594	179.869873046875	892.3636474609375	159.2743377685547	145.0850830078125	941.5098266601562	159.1681976318359	125.5579223632812	907.3350830078125	227.364501953125	-190.2890319824219	1586.3173828125	-79.97708892822266	-206.4163665771484	1528.658081054688	-277.5098876953125	-113.8412322998047	1556.906494140625	-190.2479705810547	-327.4485473632812	1556.7099609375	-188.5929107666016	-215.6170349121094	775.2454833984375	-246.7349395751953	-362.2687072753906	815.1700439453125	127.6985397338867	-238.7037658691406	847.5665283203125	94.29931640625	-152.6644439697266	830.99609375	-146.5235595703125	-11.03517818450928	420.1502075195312	-205.9359893798828	-65.28285980224609	561.958740234375	-223.7909240722656	106.6819229125977	31.1378231048584	-168.9596710205078	38.22497177124023	283.2633666992188	-215.7065887451172	309.3203735351562	128.0599822998047	-217.1835327148438	272.7998962402344	100.0279235839844	-159.2209777832031	212.4597473144531	86.66999053955078	-251.6942138671875	98.91931915283203	30.9317455291748	-91.23380279541016	-396.6172485351562	428.1799011230469	119.4503479003906	-335.48828125	681.1961669921875	148.5193481445312	-632.0887451171875	57.58277893066406	100.2565383911133	-459.8738708496094	292.8725891113281	123.816764831543	-415.6094055175781	43.77680587768555	50.82080078125	-480.2276000976562	53.57036590576172	21.20811653137207	-500.6755676269531	45.69366455078125	128.2269134521484	-695.9862060546875	69.35637664794922	51.57954788208008	
306	3.05	-414.467041015625	889.295654296875	-49.13645935058594	-377.630615234375	858.0533447265625	-181.6992492675781	-400.4800109863281	978.1195678710938	-87.10894775390625	-124.6875305175781	1187.065185546875	-91.80948638916016	-411.1557006835938	1104.772216796875	-88.80551147460938	-349.8397521972656	1375.213134765625	-78.56576538085938	-165.6120300292969	1297.191162109375	-109.7350006103516	-401.5372619628906	1260.897094726562	27.52217864990234	-396.1855163574219	1319.89306640625	-165.3170318603516	-308.7565612792969	1347.353271484375	-254.5179138183594	-352.24267578125	1253.4619140625	-354.7530822753906	-367.1716613769531	1064.607421875	-446.3164672851562	-424.3436584472656	1037.165771484375	-364.3262939453125	-310.5542907714844	857.3712768554688	-491.222412109375	-377.6436462402344	860.2565307617188	-528.2589721679688	-363.6236877441406	983.462158203125	-485.6952209472656	-330.3002624511719	708.5101318359375	-547.7537231445312	-380.3200988769531	787.3425903320312	-553.5518798828125	-311.8403930664062	778.9661254882812	-530.0347900390625	-266.6469421386719	1361.34912109375	67.95952606201172	-262.2774047851562	1313.762939453125	153.2056121826172	-109.2550888061523	1082.258422851562	244.4724578857422	-146.7870330810547	1028.132568359375	229.0891723632812	80.10614013671875	995.4100341796875	142.9712066650391	75.62701416015625	957.2824096679688	222.3176116943359	-62.85004425048828	1044.677856445312	248.4588928222656	201.3008270263672	899.388916015625	134.5700225830078	165.2237091064453	947.55224609375	136.3599243164062	149.1387939453125	912.2543334960938	204.8026733398438	-179.6707611083984	1584.794799804688	-87.26210784912109	-199.0364074707031	1527.259033203125	-284.5650329589844	-105.1079177856445	1556.148193359375	-199.0135498046875	-318.661865234375	1554.183227539062	-193.1999053955078	-203.6544189453125	772.9102172851562	-247.5743103027344	-348.6016540527344	814.308837890625	128.1956634521484	-224.8109893798828	846.2964477539062	93.44504547119141	-139.7551116943359	829.1446533203125	-147.9599914550781	2.959956645965576	419.1026000976562	-207.5318450927734	-52.47955703735352	560.6626586914062	-226.0134429931641	110.9153594970703	29.16206741333008	-167.7727203369141	50.43933486938477	280.4861450195312	-216.0235443115234	317.0812377929688	116.7815399169922	-217.2502136230469	280.3166198730469	90.33646392822266	-159.1416473388672	219.0223083496094	78.41478729248047	-251.1810150146484	103.8436431884766	30.20749855041504	-89.86876678466797	-385.6485900878906	427.8657531738281	122.4878921508789	-322.529052734375	680.4610595703125	149.4881744384766	-630.7351684570312	61.18144607543945	102.1472244262695	-452.5511779785156	294.2897644042969	126.9828491210938	-415.7985229492188	43.8361701965332	50.80378341674805	-479.7007141113281	54.53762817382812	22.32391166687012	-500.3117065429688	45.15668869018555	128.9255065917969	-694.0714111328125	77.19277191162109	54.05419540405273	
